<?xml version="1.0" standalone="no"?><svg xmlns:xlink="http://www.w3.org/1999/xlink" xmlns="http://www.w3.org/2000/svg" viewBox="0 0 1000 545.4583690400459" preserveAspectRatio="xMaxYMax slice"><g transform="scale(1.3143575157591467)"><rect x="0" y="0" width="760.8333333333334" height="415" fill="#ffffff"/><circle cx="34.585" cy="34.585" r="6.915" fill="#8714b8"/><circle cx="103.745" cy="34.585" r="6.915" fill="#183FE1"/><circle cx="172.915" cy="34.585" r="6.915" fill="#183FE1"/><circle cx="242.08499999999998" cy="34.585" r="6.915" fill="#8714b8"/><circle cx="311.245" cy="34.585" r="6.915" fill="#8714b8"/><circle cx="380.415" cy="34.585" r="6.915" fill="#183FE1"/><circle cx="449.58500000000004" cy="34.585" r="6.915" fill="#8714b8"/><circle cx="518.745" cy="34.585" r="6.915" fill="#8714b8"/><circle cx="587.915" cy="34.585" r="6.915" fill="#183FE1"/><circle cx="657.0849999999999" cy="34.585" r="6.915" fill="#183FE1"/><circle cx="726.245" cy="34.585" r="6.915" fill="#183FE1"/><circle cx="34.585" cy="103.745" r="6.915" fill="#8714b8"/><circle cx="103.75" cy="103.75" r="9.33" fill="#8714b8"/><circle cx="172.915" cy="103.745" r="11.745" fill="#8714b8"/><circle cx="242.07999999999998" cy="103.75" r="14.16" fill="#8714b8"/><circle cx="311.255" cy="103.75500000000001" r="16.575" fill="#183FE1"/><circle cx="380.415" cy="103.755" r="17.985" fill="#8714b8"/><circle cx="449.58500000000004" cy="103.755" r="17.985" fill="#8714b8"/><circle cx="518.755" cy="103.75500000000001" r="16.575" fill="#183FE1"/><circle cx="587.92" cy="103.75" r="14.16" fill="#8714b8"/><circle cx="657.085" cy="103.745" r="11.745" fill="#8714b8"/><circle cx="726.25" cy="103.75" r="9.33" fill="#183FE1"/><circle cx="34.585" cy="172.915" r="6.915" fill="#8714b8"/><circle cx="103.745" cy="172.915" r="11.745" fill="#183FE1"/><circle cx="172.915" cy="172.915" r="16.575" fill="#8714b8"/><circle cx="242.085" cy="172.915" r="21.405" fill="#8714b8"/><circle cx="311.255" cy="172.91500000000002" r="26.235" fill="#183FE1"/><circle cx="380.42" cy="172.92000000000002" r="29.05" fill="#8714b8"/><circle cx="449.58" cy="172.92000000000002" r="29.05" fill="#8714b8"/><circle cx="518.755" cy="172.91500000000002" r="26.235" fill="#183FE1"/><circle cx="587.915" cy="172.915" r="21.405" fill="#183FE1"/><circle cx="657.085" cy="172.915" r="16.575" fill="#8714b8"/><circle cx="726.245" cy="172.915" r="11.745" fill="#8714b8"/><circle cx="34.585" cy="242.08499999999998" r="6.915" fill="#183FE1"/><circle cx="103.755" cy="242.085" r="12.955" fill="#8714b8"/><circle cx="172.92000000000002" cy="242.08" r="18.99" fill="#8714b8"/><circle cx="242.085" cy="242.085" r="25.025" fill="#8714b8"/><circle cx="311.25" cy="242.08" r="31.06" fill="#8714b8"/><circle cx="380.41499999999996" cy="242.085" r="34.585" fill="#183FE1"/><circle cx="449.585" cy="242.085" r="34.585" fill="#183FE1"/><circle cx="518.75" cy="242.08" r="31.06" fill="#8714b8"/><circle cx="587.915" cy="242.085" r="25.025" fill="#8714b8"/><circle cx="657.08" cy="242.08" r="18.99" fill="#183FE1"/><circle cx="726.255" cy="242.085" r="12.955" fill="#183FE1"/><circle cx="34.585" cy="311.245" r="6.915" fill="#183FE1"/><circle cx="103.745" cy="311.245" r="11.745" fill="#183FE1"/><circle cx="172.915" cy="311.255" r="16.575" fill="#8714b8"/><circle cx="242.085" cy="311.255" r="21.405" fill="#8714b8"/><circle cx="311.255" cy="311.255" r="26.235" fill="#183FE1"/><circle cx="380.42" cy="311.25" r="29.05" fill="#183FE1"/><circle cx="449.58" cy="311.25" r="29.05" fill="#183FE1"/><circle cx="518.755" cy="311.255" r="26.235" fill="#183FE1"/><circle cx="587.915" cy="311.255" r="21.405" fill="#8714b8"/><circle cx="657.085" cy="311.255" r="16.575" fill="#8714b8"/><circle cx="726.245" cy="311.245" r="11.745" fill="#8714b8"/><circle cx="34.585" cy="380.415" r="6.915" fill="#8714b8"/><circle cx="103.75" cy="380.41999999999996" r="9.33" fill="#183FE1"/><circle cx="172.915" cy="380.415" r="11.745" fill="#183FE1"/><circle cx="242.07999999999998" cy="380.42" r="14.16" fill="#8714b8"/><circle cx="311.255" cy="380.41499999999996" r="16.575" fill="#8714b8"/><circle cx="380.415" cy="380.415" r="17.985" fill="#183FE1"/><circle cx="449.58500000000004" cy="380.415" r="17.985" fill="#183FE1"/><circle cx="518.755" cy="380.41499999999996" r="16.575" fill="#8714b8"/><circle cx="587.92" cy="380.42" r="14.16" fill="#183FE1"/><circle cx="657.085" cy="380.415" r="11.745" fill="#183FE1"/><circle cx="726.25" cy="380.41999999999996" r="9.33" fill="#183FE1"/></g></svg>